<?plantuml 1.2026.2beta3?><svg xmlns="http://www.w3.org/2000/svg" xmlns:xlink="http://www.w3.org/1999/xlink" contentStyleType="text/css" data-diagram-type="CLASS" height="333px" preserveAspectRatio="none" style="width:722px;height:333px;background:#FFFFFF;" version="1.1" viewBox="0 0 722 333" width="722px" zoomAndPan="magnify"><defs/><g><!--class logs--><g class="entity" data-qualified-name="logs" data-source-line="1" id="ent0002"><rect fill="#F1F1F1" height="96.8906" rx="2.5" ry="2.5" style="stroke:#181818;stroke-width:0.5;" width="154.8848" x="288.52" y="7"/><ellipse cx="347.3945" cy="23" fill="#ADD1B2" rx="11" ry="11" style="stroke:#181818;stroke-width:1;"/><path d="M351.5039,29 L343.7851,29 L343.7851,16.6094 L351.5039,16.6094 L351.5039,18.7656 L346.2383,18.7656 L346.2383,21.4375 L351.0039,21.4375 L351.0039,23.5938 L346.2383,23.5938 L346.2383,26.8438 L351.5039,26.8438 L351.5039,29 Z " fill="#000000"/><text fill="#000000" font-family="sans-serif" font-size="14" lengthAdjust="spacing" textLength="28.6357" x="367.8945" y="27.8467">logs</text><line style="stroke:#181818;stroke-width:0.5;" x1="289.52" x2="442.4048" y1="39" y2="39"/><g data-visibility-modifier="IE_MANDATORY"><ellipse cx="299.52" cy="52.6484" fill="#000000" rx="3" ry="3" style="stroke:#000000;stroke-width:1;"/></g><text fill="#000000" font-family="sans-serif" font-size="14" lengthAdjust="spacing" textLength="60.5186" x="308.52" y="55.9951">id : Long</text><text fill="#000000" font-family="sans-serif" font-size="14" lengthAdjust="spacing" textLength="123.2588" x="308.52" y="72.292">timestamp : Long</text><text fill="#000000" font-family="sans-serif" font-size="14" lengthAdjust="spacing" textLength="128.8848" x="308.52" y="88.5889">logType : LogType</text><line style="stroke:#181818;stroke-width:0.5;" x1="289.52" x2="442.4048" y1="95.8906" y2="95.8906"/></g><!--class settings--><g class="entity" data-qualified-name="settings" data-source-line="7" id="ent0003"><rect fill="#F1F1F1" height="96.8906" rx="2.5" ry="2.5" style="stroke:#181818;stroke-width:0.5;" width="129.9336" x="7" y="205.33"/><ellipse cx="40.947" cy="221.33" fill="#ADD1B2" rx="11" ry="11" style="stroke:#181818;stroke-width:1;"/><path d="M45.0564,227.33 L37.3376,227.33 L37.3376,214.9394 L45.0564,214.9394 L45.0564,217.0956 L39.7908,217.0956 L39.7908,219.7675 L44.5564,219.7675 L44.5564,221.9238 L39.7908,221.9238 L39.7908,225.1738 L45.0564,225.1738 L45.0564,227.33 Z " fill="#000000"/><text fill="#000000" font-family="sans-serif" font-size="14" lengthAdjust="spacing" textLength="55.8291" x="59.1575" y="226.1767">settings</text><line style="stroke:#181818;stroke-width:0.5;" x1="8" x2="135.9336" y1="237.33" y2="237.33"/><g data-visibility-modifier="IE_MANDATORY"><ellipse cx="18" cy="250.9784" fill="#000000" rx="3" ry="3" style="stroke:#000000;stroke-width:1;"/></g><text fill="#000000" font-family="sans-serif" font-size="14" lengthAdjust="spacing" textLength="82.0996" x="27" y="254.3251">logId : Long</text><text fill="#000000" font-family="sans-serif" font-size="14" lengthAdjust="spacing" textLength="103.9336" x="27" y="270.622">setting : String</text><text fill="#000000" font-family="sans-serif" font-size="14" lengthAdjust="spacing" textLength="93.6387" x="27" y="286.9189">value : String</text><line style="stroke:#181818;stroke-width:0.5;" x1="8" x2="135.9336" y1="294.2206" y2="294.2206"/></g><!--class weather--><g class="entity" data-qualified-name="weather" data-source-line="13" id="ent0004"><rect fill="#F1F1F1" height="145.7813" rx="2.5" ry="2.5" style="stroke:#181818;stroke-width:0.5;" width="185.585" x="172.17" y="180.89"/><ellipse cx="232.0255" cy="196.89" fill="#ADD1B2" rx="11" ry="11" style="stroke:#181818;stroke-width:1;"/><path d="M236.1348,202.89 L228.4161,202.89 L228.4161,190.4994 L236.1348,190.4994 L236.1348,192.6556 L230.8692,192.6556 L230.8692,195.3275 L235.6348,195.3275 L235.6348,197.4838 L230.8692,197.4838 L230.8692,200.7338 L236.1348,200.7338 L236.1348,202.89 Z " fill="#000000"/><text fill="#000000" font-family="sans-serif" font-size="14" lengthAdjust="spacing" textLength="57.374" x="252.5255" y="201.7367">weather</text><line style="stroke:#181818;stroke-width:0.5;" x1="173.17" x2="356.755" y1="212.89" y2="212.89"/><g data-visibility-modifier="IE_MANDATORY"><ellipse cx="183.17" cy="226.5384" fill="#000000" rx="3" ry="3" style="stroke:#000000;stroke-width:1;"/></g><text fill="#000000" font-family="sans-serif" font-size="14" lengthAdjust="spacing" textLength="82.0996" x="192.17" y="229.8851">logId : Long</text><text fill="#000000" font-family="sans-serif" font-size="14" lengthAdjust="spacing" textLength="109.6279" x="192.17" y="246.182">tempC: Double,</text><text fill="#000000" font-family="sans-serif" font-size="14" lengthAdjust="spacing" textLength="137.6416" x="192.17" y="262.4789">visibilityMeters: Int,</text><text fill="#000000" font-family="sans-serif" font-size="14" lengthAdjust="spacing" textLength="159.585" x="192.17" y="278.7757">windSpeedMs: Double,</text><text fill="#000000" font-family="sans-serif" font-size="14" lengthAdjust="spacing" textLength="85.6338" x="192.17" y="295.0726">windDir: Int,</text><text fill="#000000" font-family="sans-serif" font-size="14" lengthAdjust="spacing" textLength="111.5898" x="192.17" y="311.3695">rainMm: Double</text><line style="stroke:#181818;stroke-width:0.5;" x1="173.17" x2="356.755" y1="318.6713" y2="318.6713"/></g><!--class location--><g class="entity" data-qualified-name="location" data-source-line="22" id="ent0005"><rect fill="#F1F1F1" height="96.8906" rx="2.5" ry="2.5" style="stroke:#181818;stroke-width:0.5;" width="150.7422" x="392.6" y="205.33"/><ellipse cx="436.037" cy="221.33" fill="#ADD1B2" rx="11" ry="11" style="stroke:#181818;stroke-width:1;"/><path d="M440.1464,227.33 L432.4276,227.33 L432.4276,214.9394 L440.1464,214.9394 L440.1464,217.0956 L434.8808,217.0956 L434.8808,219.7675 L439.6464,219.7675 L439.6464,221.9238 L434.8808,221.9238 L434.8808,225.1738 L440.1464,225.1738 L440.1464,227.33 Z " fill="#000000"/><text fill="#000000" font-family="sans-serif" font-size="14" lengthAdjust="spacing" textLength="55.5488" x="456.3563" y="226.1767">location</text><line style="stroke:#181818;stroke-width:0.5;" x1="393.6" x2="542.3422" y1="237.33" y2="237.33"/><g data-visibility-modifier="IE_MANDATORY"><ellipse cx="403.6" cy="250.9784" fill="#000000" rx="3" ry="3" style="stroke:#000000;stroke-width:1;"/></g><text fill="#000000" font-family="sans-serif" font-size="14" lengthAdjust="spacing" textLength="82.0996" x="412.6" y="254.3251">logId : Long</text><text fill="#000000" font-family="sans-serif" font-size="14" lengthAdjust="spacing" textLength="116.9355" x="412.6" y="270.622">latitude: Double,</text><text fill="#000000" font-family="sans-serif" font-size="14" lengthAdjust="spacing" textLength="124.7422" x="412.6" y="286.9189">longitude: Double</text><line style="stroke:#181818;stroke-width:0.5;" x1="393.6" x2="542.3422" y1="294.2206" y2="294.2206"/></g><!--class files--><g class="entity" data-qualified-name="files" data-source-line="28" id="ent0006"><rect fill="#F1F1F1" height="96.8906" rx="2.5" ry="2.5" style="stroke:#181818;stroke-width:0.5;" width="108.0996" x="477.92" y="7"/><ellipse cx="514.288" cy="23" fill="#ADD1B2" rx="11" ry="11" style="stroke:#181818;stroke-width:1;"/><path d="M518.3973,29 L510.6786,29 L510.6786,16.6094 L518.3973,16.6094 L518.3973,18.7656 L513.1317,18.7656 L513.1317,21.4375 L517.8973,21.4375 L517.8973,23.5938 L513.1317,23.5938 L513.1317,26.8438 L518.3973,26.8438 L518.3973,29 Z " fill="#000000"/><text fill="#000000" font-family="sans-serif" font-size="14" lengthAdjust="spacing" textLength="28.6152" x="533.0364" y="27.8467">files</text><line style="stroke:#181818;stroke-width:0.5;" x1="478.92" x2="585.0196" y1="39" y2="39"/><g data-visibility-modifier="IE_MANDATORY"><ellipse cx="488.92" cy="52.6484" fill="#000000" rx="3" ry="3" style="stroke:#000000;stroke-width:1;"/></g><text fill="#000000" font-family="sans-serif" font-size="14" lengthAdjust="spacing" textLength="82.0996" x="497.92" y="55.9951">logId : Long</text><text fill="#000000" font-family="sans-serif" font-size="14" lengthAdjust="spacing" textLength="80.3496" x="497.92" y="72.292">start : Long</text><text fill="#000000" font-family="sans-serif" font-size="14" lengthAdjust="spacing" textLength="74.1152" x="497.92" y="88.5889">end : Long</text><line style="stroke:#181818;stroke-width:0.5;" x1="478.92" x2="585.0196" y1="95.8906" y2="95.8906"/></g><!--class device_metrics--><g class="entity" data-qualified-name="device_metrics" data-source-line="34" id="ent0007"><rect fill="#F1F1F1" height="64.2969" rx="2.5" ry="2.5" style="stroke:#181818;stroke-width:0.5;" width="137.3623" x="578.29" y="221.63"/><ellipse cx="593.29" cy="237.63" fill="#ADD1B2" rx="11" ry="11" style="stroke:#181818;stroke-width:1;"/><path d="M597.3994,243.63 L589.6806,243.63 L589.6806,231.2394 L597.3994,231.2394 L597.3994,233.3956 L592.1338,233.3956 L592.1338,236.0675 L596.8994,236.0675 L596.8994,238.2238 L592.1338,238.2238 L592.1338,241.4738 L597.3994,241.4738 L597.3994,243.63 Z " fill="#000000"/><text fill="#000000" font-family="sans-serif" font-size="14" lengthAdjust="spacing" textLength="105.3623" x="607.29" y="242.4767">device_metrics</text><line style="stroke:#181818;stroke-width:0.5;" x1="579.29" x2="714.6523" y1="253.63" y2="253.63"/><g data-visibility-modifier="IE_MANDATORY"><ellipse cx="589.29" cy="267.2784" fill="#000000" rx="3" ry="3" style="stroke:#000000;stroke-width:1;"/></g><text fill="#000000" font-family="sans-serif" font-size="14" lengthAdjust="spacing" textLength="82.0996" x="598.29" y="270.6251">logId : Long</text><line style="stroke:#181818;stroke-width:0.5;" x1="579.29" x2="714.6523" y1="277.9269" y2="277.9269"/></g><!--link logs to settings--><g class="link" data-entity-1="ent0002" data-entity-2="ent0003" data-link-type="association" data-source-line="38" id="lnk8"><path codeLine="38" d="M281.1987,101.7666 C240.4187,124.5866 197.27,150.48 154.97,180.89 C144.75,188.23 140.4139,191.4224 130.5039,199.7524" fill="none" id="logs-settings" style="stroke:#181818;stroke-width:1;"/><line style="stroke:#181818;stroke-width:1;" x1="282.736" x2="286.6427" y1="96.3227" y2="103.304"/><line style="stroke:#181818;stroke-width:1;" x1="280.1181" x2="284.0247" y1="97.7877" y2="104.7689"/><line style="stroke:#181818;stroke-width:1;" x1="281.1987" x2="288.18" y1="101.7666" y2="97.86"/><line style="stroke:#181818;stroke-width:1;" x1="130.0157" x2="124.8682" y1="205.3882" y2="199.2643"/><line style="stroke:#181818;stroke-width:1;" x1="132.3122" x2="127.1647" y1="203.4578" y2="197.3339"/><line style="stroke:#181818;stroke-width:1;" x1="130.5039" x2="124.38" y1="199.7524" y2="204.9"/><text fill="#000000" font-family="sans-serif" font-size="13" lengthAdjust="spacing" textLength="22.9785" x="223.97" y="146.9569">has</text></g><!--link logs to weather--><g class="link" data-entity-1="ent0002" data-entity-2="ent0004" data-link-type="association" data-source-line="39" id="lnk9"><path codeLine="39" d="M337.7294,111.3334 C325.9294,134.2634 318.8691,147.9959 305.7791,173.4459" fill="none" id="logs-weather" style="stroke:#181818;stroke-width:1;"/><line style="stroke:#181818;stroke-width:1;" x1="336.003" x2="343.1164" y1="105.9464" y2="109.607"/><line style="stroke:#181818;stroke-width:1;" x1="334.6303" x2="341.7437" y1="108.6139" y2="112.2745"/><line style="stroke:#181818;stroke-width:1;" x1="337.7294" x2="341.39" y1="111.3334" y2="104.22"/><line style="stroke:#181818;stroke-width:1;" x1="307.5066" x2="300.3925" y1="178.8325" y2="175.1734"/><line style="stroke:#181818;stroke-width:1;" x1="308.8788" x2="301.7646" y1="176.1647" y2="172.5056"/><line style="stroke:#181818;stroke-width:1;" x1="305.7791" x2="302.12" y1="173.4459" y2="180.56"/><text fill="#000000" font-family="sans-serif" font-size="13" lengthAdjust="spacing" textLength="22.9785" x="325.97" y="146.9569">has</text></g><!--link logs to device_metrics--><g class="link" data-entity-1="ent0002" data-entity-2="ent0007" data-link-type="association" data-source-line="40" id="lnk10"><path codeLine="40" d="M450.6911,107.1925 C487.0011,129.6825 523.54,153.48 560.97,180.89 C578.08,193.42 590.1278,203.1232 605.3078,216.0932" fill="none" id="logs-device_metrics" style="stroke:#181818;stroke-width:1;"/><line style="stroke:#181818;stroke-width:1;" x1="445.1843" x2="449.3968" y1="108.4868" y2="101.6857"/><line style="stroke:#181818;stroke-width:1;" x1="447.7347" x2="451.9472" y1="110.0665" y2="103.2654"/><line style="stroke:#181818;stroke-width:1;" x1="450.6911" x2="443.89" y1="107.1925" y2="102.98"/><line style="stroke:#181818;stroke-width:1;" x1="610.9473" x2="605.7505" y1="215.6505" y2="221.7327"/><line style="stroke:#181818;stroke-width:1;" x1="608.6664" x2="603.4697" y1="213.7017" y2="219.784"/><line style="stroke:#181818;stroke-width:1;" x1="605.3078" x2="611.39" y1="216.0932" y2="221.29"/><text fill="#000000" font-family="sans-serif" font-size="13" lengthAdjust="spacing" textLength="22.9785" x="515.97" y="146.9569">has</text></g><!--link logs to location--><g class="link" data-entity-1="ent0002" data-entity-2="ent0005" data-link-type="association" data-source-line="41" id="lnk11"><path codeLine="41" d="M394.4775,111.3194 C410.3975,141.9694 423.6114,167.4111 439.5214,198.0311" fill="none" id="logs-location" style="stroke:#181818;stroke-width:1;"/><line style="stroke:#181818;stroke-width:1;" x1="389.084" x2="396.1835" y1="109.6135" y2="105.926"/><line style="stroke:#181818;stroke-width:1;" x1="390.4669" x2="397.5663" y1="112.2758" y2="108.5882"/><line style="stroke:#181818;stroke-width:1;" x1="394.4775" x2="390.79" y1="111.3194" y2="104.22"/><line style="stroke:#181818;stroke-width:1;" x1="444.9152" x2="437.8163" y1="199.7363" y2="203.4248"/><line style="stroke:#181818;stroke-width:1;" x1="443.532" x2="436.4331" y1="197.0742" y2="200.7627"/><line style="stroke:#181818;stroke-width:1;" x1="439.5214" x2="443.21" y1="198.0311" y2="205.13"/><text fill="#000000" font-family="sans-serif" font-size="13" lengthAdjust="spacing" textLength="22.9785" x="414.97" y="146.9569">has</text></g><?plantuml-src RL6xRiCm3Dpr5PgBv0UyDak0UahtGh6k2G4z38bs4DJzzx9ER2LLDzw3H-28mCHNxU8fwo_rGbOt-Ys6asBoo6nyln1YUR_scE4ygM-bS5lFOAPmYn3VVasv2m8Fd6HGet432YmH5nW-8rK93D-_DdeNXwF3HesKwKXEDbemKcxqFl16NIZOGm_ODXVlBxcZTBSaGw7rY_fmsSNECCLGdNP2ys1H4ftGJzH3p2Sv_5C0cyGBG5ZvicSnKeSF3scagmF4E3zdchRRQIfDD_fiyfEqD5WhVqxKXhM2MVe1?></g></svg>